<?xml version="1.0" standalone="no"?>
<!DOCTYPE svg PUBLIC "-//W3C//DTD SVG 20010904//EN"
 "http://www.w3.org/TR/2001/REC-SVG-20010904/DTD/svg10.dtd">
<svg version="1.0" xmlns="http://www.w3.org/2000/svg"
 width="166.000000pt" height="166.000000pt" viewBox="0 0 166.000000 166.000000"
 preserveAspectRatio="xMidYMid meet">
<metadata>
Created by potrace 1.11, written by Peter Selinger 2001-2013
</metadata>
<g transform="translate(0.000000,166.000000) scale(0.100000,-0.100000)"
fill="#000000" stroke="none">
<path d="M777 1524 c-4 -4 -18 -9 -30 -11 -40 -6 -142 -64 -188 -106 -39 -36
-109 -126 -109 -140 0 -3 19 -3 43 0 l42 4 -50 -36 c-27 -19 -86 -53 -130 -74
-121 -59 -202 -146 -247 -268 -12 -32 -30 -70 -41 -86 -56 -81 -79 -240 -49
-342 45 -158 151 -265 311 -317 48 -15 101 -17 402 -18 214 0 366 4 396 10 71
16 148 57 207 110 28 25 72 58 97 72 61 36 123 99 163 168 49 83 57 112 62
222 6 140 -39 252 -141 354 -34 34 -86 73 -119 89 -32 15 -60 35 -63 44 -43
139 -191 279 -334 318 -37 10 -213 15 -222 7z m258 -183 c90 -47 160 -151 156
-231 -2 -42 0 -48 21 -54 13 -3 31 -6 41 -6 35 0 128 -54 168 -98 50 -54 80
-118 86 -188 6 -64 -3 -135 -21 -159 -11 -15 -12 -13 -11 16 1 35 -17 94 -50
164 -28 60 -134 161 -199 191 -31 14 -56 32 -56 40 0 32 -55 121 -109 174 -88
89 -211 138 -328 132 -24 -2 -43 -1 -43 2 0 12 103 49 150 53 30 3 56 6 58 8
6 5 101 -25 137 -44z"/>
</g>
</svg>
